#!OML:ASF X:\für Bonn\!DataBase\2005_08_11_Bastian_Final\c3d\Bastian.ASF
:FULLY-SPECIFIED
:DEGREES
98
root 0.502416 17.3248 -0.354464 169.988 -5.82236 -176.701
lowerback 5.34857 -1.75307 0.871766
upperback 7.86579 -3.17305 1.06336
thorax 5.18517 -1.90999 0.608117
lowerneck -5.94712 -4.14232 -2.07884
upperneck -4.85089 -4.84866 7.87773
head -0.241824 -2.21095 2.7712
rclavicle -2.51587e-015 9.29318e-015
rhumerus -18.4175 -44.0721 -0.183251
rradius 32.7478
rwrist -166.924
rhand -13.3265 7.50055
rfingers 7.12502
rthumb 12.7785 -22.0884
lclavicle -2.51587e-015 9.29318e-015
lhumerus -42.6263 61.8669 -21.1355
lradius 24.7105
lwrist 174.048
lhand -11.6664 6.43381
lfingers 7.12502
lthumb 14.3785 35.9158
rfemur 1.10068 6.49974 27.9288
rtibia 35.6802
rfoot -21.123 -21.2093
rtoes 0.87768
lfemur 5.76254 0.929748 -14.2196
ltibia 27.2684
lfoot -16.8682 1.13776
ltoes -15.4426
99
root 0.502446 17.3246 -0.354498 169.984 -5.83256 -176.703
lowerback 5.35516 -1.75452 0.852536
upperback 7.86481 -3.17526 1.06557
thorax 5.18149 -1.91224 0.621447
lowerneck -5.91277 -4.13672 -2.03953
upperneck -4.88597 -4.84106 7.84858
head -0.26112 -2.20897 2.75561
rclavicle -4.00675e-015 5.46658e-015
rhumerus -18.4205 -44.0981 -0.176449
rradius 32.7481
rwrist -166.855
rhand -13.2999 7.55659
rfingers 7.12502
rthumb 12.8041 -22.0307
lclavicle -4.00675e-015 5.46658e-015
lhumerus -42.4054 61.6205 -20.9256
lradius 24.6678
lwrist 174.33
lhand -11.6364 6.39354
lfingers 7.12502
lthumb 14.4073 35.8735
rfemur 1.11372 6.52281 27.9302
rtibia 35.6734
rfoot -21.1565 -21.2097
rtoes 1.00277
lfemur 5.76214 0.931363 -14.2208
ltibia 27.2778
lfoot -16.8563 1.12509
ltoes -15.4386
100
root 0.50193 17.3246 -0.354633 170.007 -5.8511 -176.7
lowerback 5.32734 -1.75418 0.853372
upperback 7.85903 -3.17319 1.06817
thorax 5.19106 -1.91027 0.622585
lowerneck -5.89989 -4.13573 -2.03865
upperneck -4.89708 -4.83864 7.85176
head -0.266889 -2.20807 2.75699
rclavicle -7.74018e-015 1.09332e-015
rhumerus -18.4334 -44.0604 -0.150632
rradius 32.738
rwrist -166.876
rhand -13.2788 7.64568
rfingers 7.12502
rthumb 12.8244 -21.9404
lclavicle -7.74018e-015 1.09332e-015
lhumerus -42.4145 61.6237 -20.9593
lradius 24.6526
lwrist 174.334
lhand -11.6798 6.39891
lfingers 7.12502
lthumb 14.3655 35.8818
rfemur 1.09422 6.51711 27.9266
rtibia 35.6587
rfoot -21.1477 -21.2186
rtoes 0.999285
lfemur 5.72073 0.963814 -14.2078
ltibia 27.2967
lfoot -16.8504 1.07758
ltoes -15.4431
101
root 0.50177 17.3243 -0.355045 170.004 -5.85284 -176.704
lowerback 5.32038 -1.75088 0.836161
upperback 7.87561 -3.1722 1.06979
thorax 5.21362 -1.91177 0.632888
lowerneck -5.95057 -4.13897 -2.00822
upperneck -4.88792 -4.84363 7.8392
head -0.256319 -2.2091 2.74595
rclavicle 2.34007e-014 -1.08835e-014
rhumerus -18.4518 -44.1975 -0.142589
rradius 32.74
rwrist -166.742
rhand -13.2744 7.63737
rfingers 7.12502
rthumb 12.8287 -21.9484
lclavicle 2.34007e-014 -1.08835e-014
lhumerus -42.4464 61.6018 -20.9998
lradius 24.6392
lwrist 174.412
lhand -11.6766 6.39547
lfingers 7.12502
lthumb 14.3686 35.8782
rfemur 1.10475 6.50773 27.9192
rtibia 35.6464
rfoot -21.1419 -21.211
rtoes 1.08356
lfemur 5.72324 0.966766 -14.211
ltibia 27.3147
lfoot -16.8674 1.06473
ltoes -15.4027
